<?xml version="1.0" encoding="utf-8"?>
<!-- Generator: Adobe Illustrator 15.0.2, SVG Export Plug-In . SVG Version: 6.00 Build 0)  -->
<!DOCTYPE svg PUBLIC "-//W3C//DTD SVG 1.1//EN" "http://www.w3.org/Graphics/SVG/1.1/DTD/svg11.dtd">
<svg version="1.1" id="Layer_1" xmlns="http://www.w3.org/2000/svg" xmlns:xlink="http://www.w3.org/1999/xlink" x="0px" y="0px"
	 width="107px" height="107px" viewBox="0 0 107 107" enable-background="new 0 0 400 107" xml:space="preserve">
<g>
	<g>
		<defs>
			<polyline id="SVGID_1_" points="453.03,303.373 -56.97,303.373 -56.97,-196.627 453.03,-196.627 			"/>
		</defs>
		<clipPath id="SVGID_2_">
			<use xlink:href="#SVGID_1_"  overflow="visible"/>
		</clipPath>
	</g>
	<g>
		<defs>
			<polyline id="SVGID_3_" points="453.03,303.373 -56.97,303.373 -56.97,-196.627 453.03,-196.627 			"/>
		</defs>
		<clipPath id="SVGID_4_">
			<use xlink:href="#SVGID_3_"  overflow="visible"/>
		</clipPath>
	</g>
	<g>
		<defs>
			<polyline id="SVGID_5_" points="453.03,303.373 -56.97,303.373 -56.97,-196.627 453.03,-196.627 			"/>
		</defs>
		<clipPath id="SVGID_6_">
			<use xlink:href="#SVGID_5_"  overflow="visible"/>
		</clipPath>
	</g>
	<g>
		<defs>
			<polyline id="SVGID_7_" points="453.03,303.373 -56.97,303.373 -56.97,-196.627 453.03,-196.627 			"/>
		</defs>
		<clipPath id="SVGID_8_">
			<use xlink:href="#SVGID_7_"  overflow="visible"/>
		</clipPath>
	</g>
	<g>
		<defs>
			<polyline id="SVGID_9_" points="453.03,303.373 -56.97,303.373 -56.97,-196.627 453.03,-196.627 			"/>
		</defs>
		<clipPath id="SVGID_10_">
			<use xlink:href="#SVGID_9_"  overflow="visible"/>
		</clipPath>
	</g>
	<g>
		<defs>
			<polyline id="SVGID_11_" points="453.03,303.373 -56.97,303.373 -56.97,-196.627 453.03,-196.627 			"/>
		</defs>
		<clipPath id="SVGID_12_">
			<use xlink:href="#SVGID_11_"  overflow="visible"/>
		</clipPath>
	</g>
	<g>
		<defs>
			<polyline id="SVGID_13_" points="453.03,303.373 -56.97,303.373 -56.97,-196.627 453.03,-196.627 			"/>
		</defs>
		<clipPath id="SVGID_14_">
			<use xlink:href="#SVGID_13_"  overflow="visible"/>
		</clipPath>
	</g>
	<g>
		<defs>
			<polyline id="SVGID_15_" points="453.03,303.373 -56.97,303.373 -56.97,-196.627 453.03,-196.627 			"/>
		</defs>
		<clipPath id="SVGID_16_">
			<use xlink:href="#SVGID_15_"  overflow="visible"/>
		</clipPath>
	</g>
	<g>
		<defs>
			<polyline id="SVGID_17_" points="453.03,303.373 -56.97,303.373 -56.97,-196.627 453.03,-196.627 			"/>
		</defs>
		<clipPath id="SVGID_18_">
			<use xlink:href="#SVGID_17_"  overflow="visible"/>
		</clipPath>
	</g>
	<g>
		<defs>
			<polyline id="SVGID_19_" points="453.03,303.373 -56.97,303.373 -56.97,-196.627 453.03,-196.627 			"/>
		</defs>
		<clipPath id="SVGID_20_">
			<use xlink:href="#SVGID_19_"  overflow="visible"/>
		</clipPath>
	</g>
	<g>
		<defs>
			<polyline id="SVGID_21_" points="453.03,303.373 -56.97,303.373 -56.97,-196.627 453.03,-196.627 			"/>
		</defs>
		<clipPath id="SVGID_22_">
			<use xlink:href="#SVGID_21_"  overflow="visible"/>
		</clipPath>
	</g>
	<g>
		<defs>
			<polyline id="SVGID_23_" points="453.03,303.373 -56.97,303.373 -56.97,-196.627 453.03,-196.627 			"/>
		</defs>
		<clipPath id="SVGID_24_">
			<use xlink:href="#SVGID_23_"  overflow="visible"/>
		</clipPath>
	</g>
	<g>
		<defs>
			<polyline id="SVGID_25_" points="453.03,303.373 -56.97,303.373 -56.97,-196.627 453.03,-196.627 			"/>
		</defs>
		<clipPath id="SVGID_26_">
			<use xlink:href="#SVGID_25_"  overflow="visible"/>
		</clipPath>
	</g>
	<g>
		<defs>
			<polyline id="SVGID_27_" points="453.03,303.373 -56.97,303.373 -56.97,-196.627 453.03,-196.627 			"/>
		</defs>
		<clipPath id="SVGID_28_">
			<use xlink:href="#SVGID_27_"  overflow="visible"/>
		</clipPath>
	</g>
	<g>
		<defs>
			<polyline id="SVGID_29_" points="453.03,303.373 -56.97,303.373 -56.97,-196.627 453.03,-196.627 			"/>
		</defs>
		<clipPath id="SVGID_30_">
			<use xlink:href="#SVGID_29_"  overflow="visible"/>
		</clipPath>
	</g>
	<g>
		<defs>
			<polyline id="SVGID_31_" points="453.03,303.373 -56.97,303.373 -56.97,-196.627 453.03,-196.627 			"/>
		</defs>
		<clipPath id="SVGID_32_">
			<use xlink:href="#SVGID_31_"  overflow="visible"/>
		</clipPath>
		<path clip-path="url(#SVGID_32_)" fill="#3B5998" d="M98.89,3.688H10.489c-3.03,0-5.484,2.454-5.484,5.484v88.401
			c0,3.028,2.454,5.483,5.484,5.483H98.89c3.027,0,5.483-2.455,5.483-5.483V9.172C104.373,6.143,101.917,3.688,98.89,3.688"/>
	</g>
	<g>
		<defs>
			<polyline id="SVGID_33_" points="453.03,303.373 -56.97,303.373 -56.97,-196.627 453.03,-196.627 			"/>
		</defs>
		<clipPath id="SVGID_34_">
			<use xlink:href="#SVGID_33_"  overflow="visible"/>
		</clipPath>
		<path clip-path="url(#SVGID_34_)" fill="#FFFFFF" d="M86.485,64.576l1.933-14.997h-14.85v-9.575c0-4.341,1.206-7.3,7.432-7.3
			l7.941-0.003V19.286c-1.373-0.181-6.087-0.59-11.572-0.59c-11.45,0-19.288,6.989-19.288,19.824v11.059h-12.95v14.997h12.95v38.48
			h15.487v-38.48H86.485z"/>
	</g>
</g>
</svg>
