<?xml version="1.0" encoding="utf-8"?>
<!-- Generator: Adobe Illustrator 15.0.2, SVG Export Plug-In . SVG Version: 6.00 Build 0)  -->
<!DOCTYPE svg PUBLIC "-//W3C//DTD SVG 1.1//EN" "http://www.w3.org/Graphics/SVG/1.1/DTD/svg11.dtd">
<svg version="1.1" id="Layer_1" xmlns="http://www.w3.org/2000/svg" xmlns:xlink="http://www.w3.org/1999/xlink" x="0px" y="0px"
	 width="400px" height="107px" viewBox="0 0 400 107" enable-background="new 0 0 510 500" xml:space="preserve">
<polygon fill="#3A5A98" points="128.114,10.473 146.002,10.473 146.002,15.031 133.317,15.031 133.317,22.126 143.636,22.126 
	143.636,26.64 133.317,26.64 133.317,37.348 128.114,37.348 "/>
<g>
	<defs>
		<rect id="SVGID_1_" x="-56.97" y="-196.627" width="510" height="500"/>
	</defs>
	<clipPath id="SVGID_2_">
		<use xlink:href="#SVGID_1_"  overflow="visible"/>
	</clipPath>
	<path clip-path="url(#SVGID_2_)" fill="#3A5A98" d="M152.107,13.913c-1.978,0-3.096-1.204-3.096-3.052
		c0-1.806,1.118-3.054,3.096-3.054c2.021,0,3.139,1.248,3.139,3.054C155.246,12.708,154.128,13.913,152.107,13.913 M149.57,37.348
		V17.654l5.074-0.731v20.425H149.57z"/>
	<path clip-path="url(#SVGID_2_)" fill="#3A5A98" d="M172.372,37.348V25.265c0-2.924-1.16-3.913-3.439-3.913
		c-1.763,0-3.398,0.903-4.386,1.849v14.147h-5.074V17.611l5.074-0.688v3.139c1.763-1.935,4.128-3.182,6.535-3.182
		c3.999,0,6.364,2.58,6.364,6.837v13.631H172.372z"/>
	<path clip-path="url(#SVGID_2_)" fill="#3A5A98" d="M195.393,8.624l5.074-0.688v29.412h-5.074v-1.935
		c-1.332,1.29-3.138,2.58-5.59,2.58c-5.245,0-8.642-4.257-8.642-10.406c0-6.321,4.386-10.707,10.018-10.707
		c1.419,0,2.968,0.258,4.214,0.645V8.624z M191.653,20.922c-3.397,0-5.332,2.795-5.332,6.45c0,3.87,1.935,6.321,4.988,6.321
		c1.677,0,2.967-0.602,4.084-1.634v-9.976C194.405,21.352,193.158,20.922,191.653,20.922"/>
	<path clip-path="url(#SVGID_2_)" fill="#3A5A98" d="M220.593,17.525v12.083c0,2.924,1.202,3.87,3.354,3.87
		c1.805,0,3.396-0.817,4.342-1.72V17.525h5.075v19.694l-5.075,0.688v-2.924c-1.634,1.763-3.999,3.01-6.536,3.01
		c-3.869,0-6.233-2.58-6.233-6.837V17.525H220.593z"/>
	<path clip-path="url(#SVGID_2_)" fill="#3A5A98" d="M244.653,38.036c-2.579,0-5.72-0.731-7.696-1.849l1.118-3.956
		c1.977,1.118,4.515,1.849,6.708,1.849c1.977,0,3.267-0.817,3.267-2.193c0-1.548-1.676-2.107-3.999-2.666
		c-3.741-0.86-6.708-2.408-6.708-6.149c0-3.741,3.139-6.192,7.913-6.192c2.451,0,5.375,0.645,7.223,1.592l-1.118,3.955
		c-1.935-0.989-4.472-1.634-6.233-1.634c-1.851,0-2.967,0.688-2.967,1.978c0,1.505,1.677,2.021,3.999,2.58
		c3.782,0.903,6.75,2.365,6.75,6.235C252.909,35.284,249.727,38.036,244.653,38.036"/>
	<path clip-path="url(#SVGID_2_)" fill="#3A5A98" d="M275.698,37.993c-5.805,0-10.018-3.956-10.018-10.535
		c0-6.536,4.428-10.621,10.277-10.621c5.848,0,10.018,4.042,10.018,10.578C285.976,33.908,281.505,37.993,275.698,37.993
		 M275.784,20.922c-3.311,0-5.115,2.666-5.115,6.493c0,3.784,1.891,6.45,5.203,6.45c3.267,0,5.072-2.58,5.072-6.407
		C280.944,23.631,279.054,20.922,275.784,20.922"/>
	<path clip-path="url(#SVGID_2_)" fill="#3A5A98" d="M302.651,37.348V25.265c0-2.924-1.16-3.913-3.439-3.913
		c-1.763,0-3.398,0.903-4.386,1.849v14.147h-5.074V17.611l5.074-0.688v3.139c1.763-1.935,4.128-3.182,6.535-3.182
		c3.999,0,6.363,2.58,6.363,6.837v13.631H302.651z"/>
	<polygon clip-path="url(#SVGID_2_)" fill="#3A5A98" points="128.114,55.267 156.399,55.267 156.399,62.475 136.341,62.475 
		136.341,73.693 152.66,73.693 152.66,80.832 136.341,80.832 136.341,97.763 128.114,97.763 	"/>
	<path clip-path="url(#SVGID_2_)" fill="#3A5A98" d="M176.004,94.159c-2.244,2.72-4.964,4.623-8.84,4.623
		c-5.643,0-9.722-3.875-9.722-8.839c0-5.779,4.215-10.675,18.562-11.15v-0.748c0-4.216-1.769-5.983-6.256-5.983
		c-3.195,0-7.071,1.428-10.403,3.331l-1.631-6.322c3.06-1.904,7.955-3.672,13.122-3.672c9.655,0,13.395,4.283,13.19,12.918v11.219
		c0,2.38,0.409,2.72,2.789,2.856l-0.613,6.051c-5.983,0.681-8.77-1.155-9.927-4.283H176.004z M176.004,83.008
		c-7.819,0.952-10.675,2.516-10.675,5.848c0,2.381,1.835,4.08,4.692,4.08c2.515,0,4.554-1.156,5.983-2.72V83.008z"/>
	<path clip-path="url(#SVGID_2_)" fill="#3A5A98" d="M205.495,98.782c-10.199,0-16.251-6.323-16.251-16.59
		c0-10.199,6.664-16.794,16.522-16.794c4.285,0,7.957,0.951,10.812,2.651l-1.699,6.459c-2.584-1.632-5.575-2.516-8.499-2.516
		c-5.78,0-8.907,3.943-8.907,9.995c0,6.392,3.603,10.131,8.907,10.131c3.263,0,6.256-0.884,8.703-2.447l1.292,6.527
		C213.653,97.831,209.711,98.782,205.495,98.782"/>
	<path clip-path="url(#SVGID_2_)" fill="#3A5A98" d="M227.159,83.824c0.341,5.1,3.809,8.567,9.384,8.567
		c3.332,0,6.935-1.088,9.791-2.856l1.02,6.664c-2.992,1.632-7.139,2.583-11.354,2.583c-10.063,0-16.727-6.391-16.727-16.386
		c0-10.199,6.799-16.998,16.183-16.998c8.295,0,12.919,5.031,12.919,12.714c0,1.7-0.273,3.876-0.681,5.235
		c-0.067,0-20.534,0.272-20.534,0.272V83.824z M240.827,78.86v-0.544c0-4.215-1.837-6.867-5.983-6.867
		c-4.42,0-7.072,3.604-7.48,7.479L240.827,78.86z"/>
	<path clip-path="url(#SVGID_2_)" fill="#3A5A98" d="M268.767,98.715c-2.039,0-4.963-0.408-7.003-1.088l-7.683,1.155V52.343
		l8.022-1.088v18.154c2.108-2.039,4.965-4.01,8.772-4.01c8.294,0,13.734,6.729,13.734,16.385
		C284.61,91.779,277.674,98.715,268.767,98.715 M268.563,72.129c-2.651,0-4.691,1.021-6.46,2.584v15.843
		c1.496,1.155,3.536,1.768,5.915,1.768c5.372,0,8.433-4.352,8.433-10.199C276.451,76.005,273.527,72.129,268.563,72.129"/>
	<path clip-path="url(#SVGID_2_)" fill="#3A5A98" d="M304.256,98.782c-9.178,0-15.843-6.255-15.843-16.658
		c0-10.335,7.004-16.794,16.251-16.794c9.248,0,15.843,6.392,15.843,16.727C320.507,92.323,313.435,98.782,304.256,98.782
		 M304.392,71.789c-5.234,0-8.091,4.216-8.091,10.268c0,5.983,2.991,10.198,8.229,10.198c5.167,0,8.021-4.079,8.021-10.131
		C312.551,76.073,309.56,71.789,304.392,71.789"/>
	<path clip-path="url(#SVGID_2_)" fill="#3A5A98" d="M340.241,98.782c-9.178,0-15.842-6.255-15.842-16.658
		c0-10.335,7.003-16.794,16.25-16.794c9.248,0,15.842,6.392,15.842,16.727C356.491,92.323,349.422,98.782,340.241,98.782
		 M340.378,71.789c-5.235,0-8.092,4.216-8.092,10.268c0,5.983,2.992,10.198,8.229,10.198c5.167,0,8.021-4.079,8.021-10.131
		C348.536,76.073,345.546,71.789,340.378,71.789"/>
	<polygon clip-path="url(#SVGID_2_)" fill="#3A5A98" points="370.045,82.668 370.045,97.763 362.022,97.763 362.022,52.343 
		370.045,51.255 370.045,80.355 370.182,80.355 381.399,66.418 390.987,66.418 378,81.309 391.056,97.763 381.469,97.763 
		370.182,82.668 	"/>
	<path clip-path="url(#SVGID_2_)" fill="#3B5998" d="M98.89,3.688H10.489c-3.03,0-5.484,2.454-5.484,5.484v88.401
		c0,3.029,2.454,5.484,5.484,5.484H98.89c3.027,0,5.483-2.455,5.483-5.484V9.172C104.373,6.143,101.917,3.688,98.89,3.688"/>
	<path clip-path="url(#SVGID_2_)" fill="#FFFFFF" d="M86.485,64.576l1.933-14.997h-14.85v-9.575c0-4.341,1.206-7.3,7.432-7.3
		l7.941-0.003V19.286c-1.373-0.181-6.087-0.59-11.572-0.59c-11.45,0-19.288,6.989-19.288,19.824v11.059h-12.95v14.997h12.95v38.481
		h15.487V64.576H86.485z"/>
</g>
</svg>
