<?xml version="1.0" encoding="UTF-8" standalone="no"?>
<!-- Generator: Adobe Illustrator 15.0.2, SVG Export Plug-In . SVG Version: 6.00 Build 0)  -->

<svg
   xmlns:dc="http://purl.org/dc/elements/1.1/"
   xmlns:cc="http://creativecommons.org/ns#"
   xmlns:rdf="http://www.w3.org/1999/02/22-rdf-syntax-ns#"
   xmlns:svg="http://www.w3.org/2000/svg"
   xmlns="http://www.w3.org/2000/svg"
   xmlns:sodipodi="http://sodipodi.sourceforge.net/DTD/sodipodi-0.dtd"
   xmlns:inkscape="http://www.inkscape.org/namespaces/inkscape"
   version="1.1"
   id="Layer_1"
   x="0px"
   y="0px"
   width="400"
   height="107"
   viewBox="0 0 400 107"
   enable-background="new 0 0 400 107"
   xml:space="preserve"
   inkscape:version="0.48.5 r10040"
   sodipodi:docname="sarahs-special.svg"><metadata
   id="metadata149"><rdf:RDF><cc:Work
       rdf:about=""><dc:format>image/svg+xml</dc:format><dc:type
         rdf:resource="http://purl.org/dc/dcmitype/StillImage" /><dc:title></dc:title></cc:Work></rdf:RDF></metadata><defs
   id="defs147"><clipPath
     clipPathUnits="userSpaceOnUse"
     id="clipPath3913"><rect
       ry="0"
       y="-65.825577"
       x="-74.082306"
       height="18.35078"
       width="178.30055"
       id="rect3915"
       style="fill:#fbf642;fill-opacity:1;stroke:#fbd542;stroke-width:0.3177757;stroke-linecap:round;stroke-linejoin:bevel;stroke-miterlimit:4;stroke-opacity:0.86243388;stroke-dasharray:none" /></clipPath><filter
     inkscape:collect="always"
     id="filter3929"><feGaussianBlur
       inkscape:collect="always"
       stdDeviation="0.58989486"
       id="feGaussianBlur3931" /></filter></defs><sodipodi:namedview
   pagecolor="#ffffff"
   bordercolor="#666666"
   borderopacity="1"
   objecttolerance="10"
   gridtolerance="10"
   guidetolerance="10"
   inkscape:pageopacity="0"
   inkscape:pageshadow="2"
   inkscape:window-width="1146"
   inkscape:window-height="868"
   id="namedview145"
   showgrid="false"
   inkscape:zoom="1.5596"
   inkscape:cx="63.075189"
   inkscape:cy="50.539172"
   inkscape:window-x="80"
   inkscape:window-y="95"
   inkscape:window-maximized="0"
   inkscape:current-layer="Layer_1"
   fit-margin-top="0"
   fit-margin-left="0"
   fit-margin-right="0"
   fit-margin-bottom="4" />

<text
   xml:space="preserve"
   style="font-size:40px;font-style:normal;font-weight:normal;line-height:125%;letter-spacing:0px;word-spacing:0px;fill:#3b5998;fill-opacity:1;stroke:none;font-family:Sans"
   x="120.18143"
   y="31.81621"
   id="text3126"
   sodipodi:linespacing="125%"><tspan
     sodipodi:role="line"
     id="tspan3128"
     x="120.18143"
     y="31.81621"
     style="font-size:36px;font-weight:bold;fill:#3b5998;fill-opacity:1;-inkscape-font-specification:Sans Bold">Sarah's daily</tspan><tspan
     sodipodi:role="line"
     x="120.18143"
     y="100.21227"
     id="tspan3130"
     style="font-size:64px;font-weight:bold;fill:#3b5998;fill-opacity:1;-inkscape-font-specification:Sans Bold">Special</tspan></text>

<flowRoot
   xml:space="preserve"
   id="flowRoot3880"
   style="fill:black;stroke:none;stroke-opacity:1;stroke-width:1px;stroke-linejoin:miter;stroke-linecap:butt;fill-opacity:1;font-family:Sans;font-style:normal;font-weight:normal;font-size:40px;line-height:125%;letter-spacing:0px;word-spacing:0px"><flowRegion
     id="flowRegion3882"><rect
       id="rect3884"
       width="112.84945"
       height="141.703"
       x="6.4119005"
       y="-13.543729" /></flowRegion><flowPara
     id="flowPara3886"></flowPara></flowRoot><path
   style="fill:#fbf642;fill-opacity:1;stroke:#fbd542;stroke-width:2.71318769;stroke-linecap:butt;stroke-linejoin:miter;stroke-miterlimit:4;stroke-opacity:1;stroke-dasharray:none"
   d="M 6.4119005,42.683634 25.647602,91.981918 88.484227,91.457468 107.07874,41.110285 z"
   id="path3892"
   inkscape:connector-curvature="0" /><path
   style="fill:#f2ea05;fill-opacity:1;stroke:#daaf05;stroke-width:1px;stroke-linecap:butt;stroke-linejoin:miter;stroke-opacity:1;filter:url(#filter3929)"
   d="M 25.006412,39.186715 14.106181,15.462683 C 24.216016,13.151979 32.1752,7.8742858 57.065914,7.1272121 68.661486,7.5198407 70.508533,7.0939981 85.22949,11.762472 c 13.43952,4.262093 10.62711,2.461452 14.79616,4.341401 L 90.4078,39.186715"
   id="path3894"
   inkscape:connector-curvature="0"
   sodipodi:nodetypes="cccscc" /><path
   sodipodi:type="star"
   style="fill:#fbf642;fill-opacity:1;stroke:#fbd542;stroke-width:1;stroke-linecap:round;stroke-linejoin:bevel;stroke-miterlimit:4;stroke-opacity:0.86243388;stroke-dasharray:none"
   id="path3896"
   sodipodi:sides="58"
   sodipodi:cx="15.388561"
   sodipodi:cy="22.362913"
   sodipodi:r1="80.282013"
   sodipodi:r2="75.946785"
   sodipodi:arg1="0.75715708"
   sodipodi:arg2="0.81132247"
   inkscape:flatsided="false"
   inkscape:rounded="0.07"
   inkscape:randomized="0.058"
   d="m 71.827143,80.781979 c -0.307075,0.296075 -1.432998,-7.244847 -1.768069,-6.969778 -0.335071,0.275068 2.257339,13.89327 1.948587,14.198154 -0.308752,0.304885 -8.521456,-4.498912 -8.88134,-4.268758 -0.359884,0.230153 -4.922367,4.621187 -5.263783,4.87036 -0.341415,0.249173 0.697341,2.447101 0.33548,2.656998 -0.361862,0.209898 -7.713721,-0.02176 -8.083348,0.177228 -0.369626,0.198987 -3.003652,0.03564 -3.405325,0.188402 -0.401673,0.152761 -0.104328,6.680699 -0.506229,6.848669 -0.4019,0.16797 -5.769059,-1.575093 -6.167887,-1.46333 -0.398827,0.111763 -6.747334,1.793897 -7.144288,1.920053 -0.396953,0.126157 -2.474952,0.701222 -2.893624,0.79428 -0.418673,0.09306 0.234458,2.622463 -0.199217,2.665223 -0.433675,0.0428 -2.259516,-4.301736 -2.680526,-4.240258 -0.42101,0.06148 -2.48614,1.102291 -2.916813,1.131885 -0.430674,0.0296 -8.515006,3.491723 -8.947576,3.481363 -0.43257,-0.0104 0.29852,-4.152229 -0.115978,-4.200543 -0.414498,-0.04831 -4.428601,-4.087099 -4.841498,-4.144255 -0.4128967,-0.05716 -6.9755932,10.404478 -7.4031882,10.368898 -0.427595,-0.0356 -0.2875592,-7.718898 -0.707111,-7.829503 -0.4195519,-0.110605 -9.6089278,3.204513 -10.0140664,3.096083 -0.4051387,-0.108417 -3.7462404,-5.517573 -4.1604784,-5.62122 -0.414238,-0.103648 1.614072,6.9918 1.206907,6.84186 -0.407165,-0.14994 -9.679551,-8.212381 -10.0845,-8.373524 -0.404949,-0.161144 -2.838705,-3.162836 -3.235491,-3.338411 -0.396786,-0.175574 -1.865546,0.307955 -2.237752,0.0881 -0.372205,-0.219852 -0.959663,3.898302 -1.317911,3.656332 -0.358249,-0.24197 -0.07617,-12.006463 -0.427822,-12.234136 -0.35165,-0.227674 -7.011151,4.533701 -7.347321,4.277562 -0.33617,-0.25614 -5.102301,-11.671538 -5.411554,-11.9702 -0.309252,-0.298663 -1.467301,5.997253 -1.772842,5.711635 -0.30554,-0.285619 4.094384,-7.738996 3.803225,-8.059708 -0.291159,-0.320711 -7.349522,4.946223 -7.612394,4.599694 -0.262872,-0.346529 -4.503301,-14.060727 -4.739016,-14.413092 -0.235715,-0.352365 -4.708875,0.338268 -4.910897,-0.04626 -0.202021,-0.384523 7.493176,-4.059069 7.275761,-4.43383 -0.217415,-0.374761 -11.616595,-1.117427 -11.807135,-1.502875 -0.190541,-0.385448 10.225481,-8.19198 10.035812,-8.568705 -0.189668,-0.376725 -12.492067,-0.67287 -12.590033,-1.075533 -0.09797,-0.402663 4.129948,-6.576901 3.976688,-6.984241 -0.15326,-0.407339 0.607762,-2.205557 0.537365,-2.634033 -0.0704,-0.428475 1.424386,-5.040931 1.327772,-5.4589 -0.09661,-0.41797 -7.45854,4.060752 -7.486254,3.645049 -0.02772,-0.415702 6.991078,-6.793963 6.940471,-7.221522 -0.05061,-0.42756 -3.688094,-7.03859 -3.712809,-7.452242 -0.02472,-0.413651 -1.424779,1.108249 -1.401301,0.691197 0.02348,-0.417052 -3.619673,-4.143442 -3.589462,-4.556205 0.03021,-0.412762 7.173069,-4.620835 7.232184,-5.04988 0.05911,-0.429045 -8.06798,-3.848662 -7.961831,-4.2504756 0.106149,-0.4018137 5.051574,-1.7715552 5.196308,-2.1814614 0.144735,-0.4099062 -1.295986,-3.19226944 -1.16225,-3.59140503 0.133737,-0.3991356 8.874527,-4.44299057 9.020132,-4.83047267 0.145605,-0.3874821 -3.835553,-5.3427868 -3.671408,-5.7242914 0.164144,-0.3815049 9.079223,-4.9580219 9.260107,-5.3469649 0.180885,-0.388943 -5.143643,0.307873 -4.964221,-0.06388 0.179421,-0.371749 3.305083,-4.291004 3.518433,-4.657382 0.213351,-0.366378 5.668297,-5.498163 5.901757,-5.858269 0.233461,-0.360106 2.645417,-2.964722 2.899241,-3.29602 0.253823,-0.331298 1.881066,-4.224205 2.20113,-4.508302 0.320065,-0.284097 1.445358,-2.072552 1.768069,-2.342935 0.322711,-0.270383 -2.403288,1.947439 -2.092358,1.672351 0.31093,-0.275087 8.045177,-0.545886 8.369713,-0.834155 0.324537,-0.288269 1.201858,-6.409941 1.573135,-6.632333 0.371278,-0.222392 3.517228,3.63958 3.857211,3.40338 0.339982,-0.236201 3.164864,-5.984387 3.551556,-6.172071 0.386692,-0.187684 8.952413,-1.663087 9.326719,-1.83872 0.374307,-0.175634 -5.986088,-8.382127 -5.577956,-8.531142 0.408132,-0.149016 10.6378988,4.97911 11.0252598,4.811041 0.387361,-0.168069 1.8684348,-5.173493 2.2869155,-5.267765 0.4184806,-0.09427 -0.2530918,4.215066 0.1669883,4.15545 0.4200802,-0.05962 3.4791028,-1.890494 3.8897145,-1.934396 0.41061165,-0.0439 11.0842749,0.798724 11.5007829,0.746359 0.416508,-0.05237 -1.2190904,-1.646875 -0.7831202,-1.63607 0.4359702,0.01081 5.3041162,-1.014386 5.7286322,-0.994382 0.424515,0.02 3.415428,-3.301834 3.836964,-3.300746 0.421535,0.0011 3.921637,8.862381 4.34889,8.931924 0.427254,0.06954 1.874902,-5.394842 2.283015,-5.339672 0.408114,0.05517 1.73562,4.02204 2.137086,4.131749 0.401466,0.10971 11.908116,-6.198231 12.314662,-6.095112 0.406546,0.103119 -5.398556,10.084234 -4.99873,10.211804 0.399826,0.127569 12.688466,-7.302938 13.072475,-7.148953 0.384009,0.153986 2.293754,5.053854 2.653997,5.253406 0.360243,0.199551 5.323717,-4.617979 5.689591,-4.38275 0.365874,0.235229 1.225832,11.248183 1.591939,11.483999 0.366107,0.235816 1.49728,1.409647 1.820103,1.673222 0.322823,0.263574 -0.395076,-2.460113 -0.0838,-2.181492 0.311271,0.278622 7.522618,0.563192 7.858948,0.825353 0.33633,0.26216 -4.073182,4.902788 -3.747954,5.185768 0.325229,0.28298 10.26145,-1.797794 10.573929,-1.501836 0.312479,0.295958 -4.232145,6.254194 -3.956281,6.562574 0.275864,0.308381 9.738002,5.349002 10.006081,5.664669 0.268079,0.315666 -2.069619,6.814498 -1.837925,7.174426 0.231694,0.359929 4.814429,-5.840937 5.054817,-5.480388 0.240388,0.360549 1.709163,9.813614 1.883597,10.187114 0.174435,0.3735 2.807171,5.4088044 2.996464,5.8012799 0.189292,0.3924754 -5.966471,3.6631954 -5.833838,4.0585805 0.132634,0.3953851 7.770959,1.9179025 7.886166,2.3184009 0.115208,0.40049847 0.234063,4.5971918 0.378493,5.0023981 0.14443,0.4052064 5.010998,2.5196223 5.085,2.9343575 0.074,0.4147352 -10.679064,6.8683551 -10.630751,7.2945581 0.04831,0.426204 9.471235,2.583659 9.521371,3.013532 0.05013,0.429873 -4.812373,3.108217 -4.783347,3.529873 0.02903,0.421656 5.125481,-0.383627 5.092977,0.03372 -0.03251,0.417346 0.07086,6.529083 0.0117,6.953964 -0.05916,0.424882 0.960316,3.307999 0.93973,3.72281 -0.02059,0.41481 -4.544407,5.471435 -4.582452,5.883275 -0.03805,0.411841 3.879652,-1.17914 3.769291,-0.778753 -0.110362,0.400387 -10.678618,2.520147 -10.818524,2.912285 -0.139906,0.392139 10.599536,11.708631 10.465379,12.09961 -0.134157,0.390979 -8.528235,-4.136366 -8.671445,-3.743266 -0.143211,0.3931 3.83591,6.123661 3.680993,6.5288 -0.154918,0.40514 -9.541522,-0.333081 -9.7623,0.01741 -0.220777,0.350493 5.81156,9.61076 5.619919,9.984009 -0.191641,0.373249 -3.431807,-1.091355 -3.681524,-0.737705 -0.249716,0.353649 -4.256721,6.958086 -4.502719,7.299181 -0.245998,0.341095 -8.201315,4.81232 -8.490968,5.107444 -0.289653,0.295123 2.451989,4.519321 2.144915,4.815395 z"
   inkscape:transform-center-x="0.88570383"
   inkscape:transform-center-y="-6.6976737"
   transform="translate(37.753783,85.736856)"
   clip-path="url(#clipPath3913)" /></svg>